#Comment line ignore any data following # character 
#Hierarchical Translation and Rotation (.htr) file 
[Header]	
#Header keywords are followed by a single value 
FileType HTR		#Single word string
DataType HTRS		#Translation followed by rotation and scale data
FileVersion 1		#integer
NumSegments 84		#integer
NumFrames 2		#integer
DataFrameRate 30		#integer, data frame rate in this file
EulerRotationOrder ZYX
CalibrationUnits mm
RotationUnits Degrees
GlobalAxisofGravity Y
BoneLengthAxis Y
ScaleFactor 1.00
[SegmentNames&Hierarchy]
#CHILD	PARENT
MASTER GLOBAL
root MASTER
chest root
L_mid_tent01 root
R_mid_tent01 root
spine01 root
Bip01_Neck chest
L_humerus chest
R_humerus chest
weapon_bone chest
Bip01_Head Bip01_Neck
eye_left_bone Bip01_Head
eye_right_bone Bip01_Head
L_forearm L_humerus
L_front_hand L_forearm
L_weapon_bone L_forearm
L_front_hand01_01 L_front_hand
L_front_hand02_01 L_front_hand
L_front_hand03_01 L_front_hand
L_front_hand01_02 L_front_hand01_01
L_front_hand02_02 L_front_hand02_01
L_front_hand03_02 L_front_hand03_01
R_forearm R_humerus
R_front_hand R_forearm
R_weapon_bone R_forearm
R_front_hand01_01 R_front_hand
R_front_hand02_01 R_front_hand
R_front_hand03_01 R_front_hand
R_front_hand01_02 R_front_hand01_01
R_front_hand02_02 R_front_hand02_01
R_front_hand03_02 R_front_hand03_01
null_rope01_connect L_mid_tent01
Rope1_Seg01 null_rope01_connect
Rope1_Seg02 Rope1_Seg01
Rope1_Seg03 Rope1_Seg02
Rope1_Seg04 Rope1_Seg03
Rope1_Seg05 Rope1_Seg04
Rope1_Seg06 Rope1_Seg05
Rope1_Seg07 Rope1_Seg06
Rope1_Seg09 Rope1_Seg07
L_mid_hand01 Rope1_Seg09
L_mid_hand02 Rope1_Seg09
L_mid_hand03 Rope1_Seg09
null_rope02_connect R_mid_tent01
Rope2_Seg01 null_rope02_connect
Rope2_Seg02 Rope2_Seg01
Rope2_Seg03 Rope2_Seg02
Rope2_Seg04 Rope2_Seg03
Rope2_Seg05 Rope2_Seg04
Rope2_Seg06 Rope2_Seg05
Rope2_Seg07 Rope2_Seg06
Rope2_Seg09 Rope2_Seg07
R_mid_hand01 Rope2_Seg09
R_mid_hand02 Rope2_Seg09
R_mid_hand03 Rope2_Seg09
spine02 spine01
spine03 spine02
pelvis spine03
null_rope03_connect pelvis
null_rope04_connect pelvis
Rope3_Seg01 null_rope03_connect
Rope3_Seg02 Rope3_Seg01
Rope3_Seg03 Rope3_Seg02
Rope3_Seg04 Rope3_Seg03
Rope3_Seg05 Rope3_Seg04
Rope3_Seg06 Rope3_Seg05
Rope3_Seg07 Rope3_Seg06
Rope3_Seg08 Rope3_Seg07
Rope3_Seg09 Rope3_Seg08
R_rear_hand01 Rope3_Seg09
R_rear_hand02 Rope3_Seg09
R_rear_hand03 Rope3_Seg09
Rope4_Seg01 null_rope04_connect
Rope4_Seg02 Rope4_Seg01
Rope4_Seg03 Rope4_Seg02
Rope4_Seg04 Rope4_Seg03
Rope4_Seg05 Rope4_Seg04
Rope4_Seg06 Rope4_Seg05
Rope4_Seg07 Rope4_Seg06
Rope4_Seg08 Rope4_Seg07
Rope4_Seg09 Rope4_Seg08
L_rear_hand01 Rope4_Seg09
L_rear_hand02 Rope4_Seg09
L_rear_hand03 Rope4_Seg09
[BasePosition]
#SegmentName Tx, Ty, Tz, Rx, Ry, Rz, BoneLength
MASTER 0.000000 0.000000 0.000000 -90.000000 0.000000 0.000000 10.000000 
root 0.000000 0.000000 0.000000 0.000000 0.000000 0.000000 10.000000 
chest 0.000000 0.000000 0.000000 0.000000 0.000000 0.000000 10.000000 
L_mid_tent01 0.000000 0.000000 0.000000 0.000000 0.000000 0.000000 10.000000 
R_mid_tent01 0.000000 0.000000 0.000000 0.000000 0.000000 0.000000 10.000000 
spine01 0.000000 0.000000 0.000000 0.000000 0.000000 0.000000 10.000000 
Bip01_Neck 0.000000 0.000000 0.000000 0.000000 0.000000 0.000000 10.000000 
L_humerus 0.000000 0.000000 0.000000 0.000000 0.000000 0.000000 10.000000 
R_humerus 0.000000 0.000000 0.000000 0.000000 0.000000 0.000000 10.000000 
weapon_bone 0.000000 0.000000 0.000000 0.000000 0.000000 0.000000 10.000000 
Bip01_Head 0.000000 0.000000 0.000000 0.000000 0.000000 0.000000 10.000000 
eye_left_bone 0.000000 0.000000 0.000000 0.000000 0.000000 0.000000 10.000000 
eye_right_bone 0.000000 0.000000 0.000000 0.000000 0.000000 0.000000 10.000000 
L_forearm 0.000000 0.000000 0.000000 0.000000 0.000000 0.000000 10.000000 
L_front_hand 0.000000 0.000000 0.000000 0.000000 0.000000 0.000000 10.000000 
L_weapon_bone 0.000000 0.000000 0.000000 0.000000 0.000000 0.000000 10.000000 
L_front_hand01_01 0.000000 0.000000 0.000000 0.000000 0.000000 0.000000 10.000000 
L_front_hand02_01 0.000000 0.000000 0.000000 0.000000 0.000000 0.000000 10.000000 
L_front_hand03_01 0.000000 0.000000 0.000000 0.000000 0.000000 0.000000 10.000000 
L_front_hand01_02 0.000000 0.000000 0.000000 0.000000 0.000000 0.000000 10.000000 
L_front_hand02_02 0.000000 0.000000 0.000000 0.000000 0.000000 0.000000 10.000000 
L_front_hand03_02 0.000000 0.000000 0.000000 0.000000 0.000000 0.000000 10.000000 
R_forearm 0.000000 0.000000 0.000000 0.000000 0.000000 0.000000 10.000000 
R_front_hand 0.000000 0.000000 0.000000 0.000000 0.000000 0.000000 10.000000 
R_weapon_bone 0.000000 0.000000 0.000000 0.000000 0.000000 0.000000 10.000000 
R_front_hand01_01 0.000000 0.000000 0.000000 0.000000 0.000000 0.000000 10.000000 
R_front_hand02_01 0.000000 0.000000 0.000000 0.000000 0.000000 0.000000 10.000000 
R_front_hand03_01 0.000000 0.000000 0.000000 0.000000 0.000000 0.000000 10.000000 
R_front_hand01_02 0.000000 0.000000 0.000000 0.000000 0.000000 0.000000 10.000000 
R_front_hand02_02 0.000000 0.000000 0.000000 0.000000 0.000000 0.000000 10.000000 
R_front_hand03_02 0.000000 0.000000 0.000000 0.000000 0.000000 0.000000 10.000000 
null_rope01_connect 0.000000 0.000000 0.000000 0.000000 0.000000 0.000000 10.000000 
Rope1_Seg01 0.000000 0.000000 0.000000 0.000000 0.000000 0.000000 10.000000 
Rope1_Seg02 0.000000 0.000000 0.000000 0.000000 0.000000 0.000000 10.000000 
Rope1_Seg03 0.000000 0.000000 0.000000 0.000000 0.000000 0.000000 10.000000 
Rope1_Seg04 0.000000 0.000000 0.000000 0.000000 0.000000 0.000000 10.000000 
Rope1_Seg05 0.000000 0.000000 0.000000 0.000000 0.000000 0.000000 10.000000 
Rope1_Seg06 0.000000 0.000000 0.000000 0.000000 0.000000 0.000000 10.000000 
Rope1_Seg07 0.000000 0.000000 0.000000 0.000000 0.000000 0.000000 10.000000 
Rope1_Seg09 0.000000 0.000000 0.000000 0.000000 0.000000 0.000000 10.000000 
L_mid_hand01 0.000000 0.000000 0.000000 0.000000 0.000000 0.000000 10.000000 
L_mid_hand02 0.000000 0.000000 0.000000 0.000000 0.000000 0.000000 10.000000 
L_mid_hand03 0.000000 0.000000 0.000000 0.000000 0.000000 0.000000 10.000000 
null_rope02_connect 0.000000 0.000000 0.000000 0.000000 0.000000 0.000000 10.000000 
Rope2_Seg01 0.000000 0.000000 0.000000 0.000000 0.000000 0.000000 10.000000 
Rope2_Seg02 0.000000 0.000000 0.000000 0.000000 0.000000 0.000000 10.000000 
Rope2_Seg03 0.000000 0.000000 0.000000 0.000000 0.000000 0.000000 10.000000 
Rope2_Seg04 0.000000 0.000000 0.000000 0.000000 0.000000 0.000000 10.000000 
Rope2_Seg05 0.000000 0.000000 0.000000 0.000000 0.000000 0.000000 10.000000 
Rope2_Seg06 0.000000 0.000000 0.000000 0.000000 0.000000 0.000000 10.000000 
Rope2_Seg07 0.000000 0.000000 0.000000 0.000000 0.000000 0.000000 10.000000 
Rope2_Seg09 0.000000 0.000000 0.000000 0.000000 0.000000 0.000000 10.000000 
R_mid_hand01 0.000000 0.000000 0.000000 0.000000 0.000000 0.000000 10.000000 
R_mid_hand02 0.000000 0.000000 0.000000 0.000000 0.000000 0.000000 10.000000 
R_mid_hand03 0.000000 0.000000 0.000000 0.000000 0.000000 0.000000 10.000000 
spine02 0.000000 0.000000 0.000000 0.000000 0.000000 0.000000 10.000000 
spine03 0.000000 0.000000 0.000000 0.000000 0.000000 0.000000 10.000000 
pelvis 0.000000 0.000000 0.000000 0.000000 0.000000 0.000000 10.000000 
null_rope03_connect 0.000000 0.000000 0.000000 0.000000 0.000000 0.000000 10.000000 
null_rope04_connect 0.000000 0.000000 0.000000 0.000000 0.000000 0.000000 10.000000 
Rope3_Seg01 0.000000 0.000000 0.000000 0.000000 0.000000 0.000000 10.000000 
Rope3_Seg02 0.000000 0.000000 0.000000 0.000000 0.000000 0.000000 10.000000 
Rope3_Seg03 0.000000 0.000000 0.000000 0.000000 0.000000 0.000000 10.000000 
Rope3_Seg04 0.000000 0.000000 0.000000 0.000000 0.000000 0.000000 10.000000 
Rope3_Seg05 0.000000 0.000000 0.000000 0.000000 0.000000 0.000000 10.000000 
Rope3_Seg06 0.000000 0.000000 0.000000 0.000000 0.000000 0.000000 10.000000 
Rope3_Seg07 0.000000 0.000000 0.000000 0.000000 0.000000 0.000000 10.000000 
Rope3_Seg08 0.000000 0.000000 0.000000 0.000000 0.000000 0.000000 10.000000 
Rope3_Seg09 0.000000 0.000000 0.000000 0.000000 0.000000 0.000000 10.000000 
R_rear_hand01 0.000000 0.000000 0.000000 0.000000 0.000000 0.000000 10.000000 
R_rear_hand02 0.000000 0.000000 0.000000 0.000000 0.000000 0.000000 10.000000 
R_rear_hand03 0.000000 0.000000 0.000000 0.000000 0.000000 0.000000 10.000000 
Rope4_Seg01 0.000000 0.000000 0.000000 0.000000 0.000000 0.000000 10.000000 
Rope4_Seg02 0.000000 0.000000 0.000000 0.000000 0.000000 0.000000 10.000000 
Rope4_Seg03 0.000000 0.000000 0.000000 0.000000 0.000000 0.000000 10.000000 
Rope4_Seg04 0.000000 0.000000 0.000000 0.000000 0.000000 0.000000 10.000000 
Rope4_Seg05 0.000000 0.000000 0.000000 0.000000 0.000000 0.000000 10.000000 
Rope4_Seg06 0.000000 0.000000 0.000000 0.000000 0.000000 0.000000 10.000000 
Rope4_Seg07 0.000000 0.000000 0.000000 0.000000 0.000000 0.000000 10.000000 
Rope4_Seg08 0.000000 0.000000 0.000000 0.000000 0.000000 0.000000 10.000000 
Rope4_Seg09 0.000000 0.000000 0.000000 0.000000 0.000000 0.000000 10.000000 
L_rear_hand01 0.000000 0.000000 0.000000 0.000000 0.000000 0.000000 10.000000 
L_rear_hand02 0.000000 0.000000 0.000000 0.000000 0.000000 0.000000 10.000000 
L_rear_hand03 0.000000 0.000000 0.000000 0.000000 0.000000 0.000000 10.000000 
#Beginning of Data. Separated by tabs
#Fr	Tx	Ty	Tz	Rx	Ry	Rz	SF
[MASTER]
11 -0.000159 1105.923340 1525.218506 0.001660 0.001660 0.001660 1883.973877
12 -0.000183 1242.467407 1830.765015 0.001660 0.001660 0.001660 2212.561035
[root]
11 -31.448349 160.707474 1145.136963 -84.879433 8.322969 -92.854950 1156.786255
12 -32.874378 122.169724 1212.333374 -84.292854 10.033363 -93.018639 1218.916748
[chest]
11 -84.512650 -34.090519 0.000000 -1.358493 0.163172 -156.625076 91.129311
12 -84.512650 -34.090519 0.000000 -1.368664 0.234402 -157.569611 91.129311
[L_mid_tent01]
11 27.299057 22.179068 -249.918686 4.641297 8.786112 82.425583 252.381653
12 27.299051 22.179064 -249.918686 4.007786 11.852603 81.702972 252.381653
[R_mid_tent01]
11 23.228794 24.509907 226.238495 164.226883 -4.936842 76.419685 228.744751
12 23.228794 24.509907 226.238495 162.835220 -6.816590 79.761520 228.744751
[spine01]
11 -0.361383 -0.195265 0.000000 0.002079 0.001089 34.688892 0.410763
12 -0.361383 -0.195265 0.000000 0.002090 0.001069 35.799385 0.410763
[Bip01_Neck]
11 165.484543 71.581718 0.000119 176.643677 -1.657967 43.431911 180.302734
12 165.484543 71.581718 0.000119 176.643677 -1.657967 43.431911 180.302734
[L_humerus]
11 -13.983130 -135.272980 -120.471481 165.396393 46.139675 -123.168709 181.680161
12 -13.983130 -135.272980 -120.471481 167.380096 39.095715 -123.150719 181.680161
[R_humerus]
11 -13.983309 -135.273102 125.287651 -164.376953 -42.613701 -120.052963 184.909012
12 -13.983309 -135.273102 125.287651 -165.607697 -35.183823 -121.061646 184.909012
[weapon_bone]
11 235.964890 -300.705902 0.000000 0.000000 -89.951546 -128.212341 382.234833
12 235.964890 -300.705902 0.000000 0.000000 -89.951546 -128.212341 382.234833
[Bip01_Head]
11 213.518066 185.511246 14.415389 4.982295 8.427105 -43.807419 283.217560
12 213.589478 185.312637 16.978973 4.976888 6.734808 -43.852257 283.283478
[eye_left_bone]
11 -24.626970 125.451866 -64.772606 0.000000 -90.000000 -99.840431 143.318359
12 -24.626970 125.451866 -64.772606 0.000000 -90.000000 -99.840431 143.318359
[eye_right_bone]
11 -24.626970 125.451866 64.327362 0.000000 -89.965736 80.156380 143.117676
12 -24.626970 125.451866 64.327362 0.000000 -89.965736 80.156380 143.117676
[L_forearm]
11 322.776093 0.000000 -0.000119 0.000430 -0.002307 -111.119789 322.776093
12 322.776093 0.000000 -0.000119 0.000431 -0.002307 -111.173744 322.776093
[L_front_hand]
11 241.149185 -0.042021 -3.300071 -178.667953 -1.835447 -27.422350 241.171753
12 241.149185 -0.042021 -3.300071 -178.667953 -1.835447 -27.422342 241.171753
[L_weapon_bone]
11 156.183838 0.000000 0.000000 0.000014 0.000007 0.000001 156.183838
12 156.183838 0.000000 0.000000 0.000014 0.000007 0.000001 156.183838
[L_front_hand01_01]
11 86.095154 20.947098 -0.655860 -0.282467 -0.528169 66.067474 88.609184
12 86.095154 20.947098 -0.655860 -0.274633 -0.532782 65.272827 88.609184
[L_front_hand02_01]
11 86.935165 -11.437475 24.513514 141.960785 -54.937931 -46.642326 91.046425
12 86.935165 -11.437475 24.513514 141.090271 -54.445614 -45.572052 91.046425
[L_front_hand03_01]
11 86.637497 -14.123976 -20.424902 -142.303543 53.163303 -48.671021 90.126129
12 86.637497 -14.123976 -20.424902 -141.476303 52.677540 -47.637543 90.126129
[L_front_hand01_02]
11 71.020905 -0.000179 0.000030 0.000315 -0.002326 -105.442795 71.020905
12 71.020905 -0.000179 0.000030 0.000315 -0.002326 -105.419182 71.020905
[L_front_hand02_02]
11 71.020927 -0.000119 0.000060 0.000315 -0.002326 -105.442795 71.020927
12 71.020927 -0.000119 0.000060 0.000315 -0.002326 -105.419182 71.020927
[L_front_hand03_02]
11 71.020905 -0.000060 0.000060 0.000315 -0.002326 -105.442795 71.020905
12 71.020905 -0.000060 0.000060 0.000315 -0.002326 -105.419182 71.020905
[R_forearm]
11 322.776428 -0.000060 0.000030 0.201104 0.068178 -109.779831 322.776428
12 322.776428 -0.000060 0.000030 0.201073 0.068269 -109.831215 322.776428
[R_front_hand]
11 238.847015 -0.006795 2.210259 -2.635298 -10.645461 -26.312506 238.857239
12 238.847015 -0.006795 2.210259 -2.635298 -10.645461 -26.312506 238.857239
[R_weapon_bone]
11 155.664093 0.002503 -0.000030 0.003487 0.001180 -90.988930 155.664078
12 155.664093 0.002503 -0.000030 0.003487 0.001180 -90.988930 155.664078
[R_front_hand01_01]
11 87.624611 14.231146 22.918642 -141.947052 -54.924736 46.726727 91.683487
12 87.624611 14.231146 22.918642 -140.500656 -54.097115 44.955364 91.683487
[R_front_hand02_01]
11 89.356956 14.367283 -19.491137 142.634140 53.329124 49.315853 92.579636
12 89.356956 14.367283 -19.491137 141.255966 52.517570 47.591045 92.579636
[R_front_hand03_01]
11 87.286232 -22.307278 -0.143439 0.092230 -0.445770 -66.286446 90.091743
12 87.286232 -22.307278 -0.143439 0.080269 -0.445286 -64.968231 90.091743
[R_front_hand01_02]
11 71.020905 0.000060 0.000119 0.002323 -0.000334 106.381714 71.020905
12 71.020905 0.000060 0.000119 0.002323 -0.000334 106.381714 71.020905
[R_front_hand02_02]
11 71.020844 -0.000030 -0.000119 0.002323 -0.000334 106.381714 71.020836
12 71.020844 -0.000030 -0.000119 0.002323 -0.000334 106.381714 71.020836
[R_front_hand03_02]
11 71.020905 0.000000 0.000030 0.002323 -0.000334 106.381714 71.020905
12 71.020905 0.000000 0.000030 0.002323 -0.000334 106.381714 71.020905
[null_rope01_connect]
11 328.732483 0.000000 -0.000238 -114.980331 -81.043991 114.234314 328.732483
12 328.732483 0.000000 -0.000238 -129.737457 -80.059128 127.962326 328.732483
[Rope1_Seg01]
11 0.000010 -0.000107 -0.000078 -63.876728 75.377068 -59.157867 0.000133
12 0.000011 -0.000113 -0.000086 -59.959484 78.159676 -53.845978 0.000143
[Rope1_Seg02]
11 139.999863 -0.000179 0.000000 0.750266 -0.115808 -1.700516 139.999863
12 139.999863 -0.000179 0.000000 0.732963 -0.299674 -1.607696 139.999863
[Rope1_Seg03]
11 139.999924 0.000060 -0.000060 1.088691 -0.184303 -2.295151 139.999924
12 139.999924 0.000060 -0.000060 1.033499 -0.424342 -2.129037 139.999924
[Rope1_Seg04]
11 139.999924 -0.000060 -0.000119 1.000005 0.785220 -3.043521 139.999924
12 139.999924 -0.000060 -0.000119 0.265847 1.253025 -2.077810 139.999924
[Rope1_Seg05]
11 139.999832 0.000119 -0.000060 1.652436 2.474250 -5.902132 139.999832
12 139.999832 0.000119 -0.000060 1.976130 0.498528 -4.695157 139.999832
[Rope1_Seg06]
11 139.999954 0.000119 -0.000060 14.211336 -13.916230 -8.593380 139.999954
12 139.999954 0.000119 -0.000060 14.315784 -15.410810 -10.830693 139.999954
[Rope1_Seg07]
11 139.999985 0.000060 0.000000 5.425987 -9.002048 -1.632672 139.999985
12 139.999985 0.000060 0.000000 5.458776 -9.091088 -3.254119 139.999985
[Rope1_Seg09]
11 121.602913 0.000119 -0.000089 -89.793175 -1.359789 0.847147 121.602913
12 121.602913 0.000119 -0.000089 -89.793175 -1.359789 0.847147 121.602913
[L_mid_hand01]
11 103.859421 1.038730 8.195221 110.016701 -43.583408 -14.630757 104.187431
12 103.859421 1.038730 8.195221 111.216125 -46.770245 -16.325298 104.187431
[L_mid_hand02]
11 105.572853 -4.139662 -10.864139 -148.402466 33.171719 -41.059582 106.211075
12 105.572853 -4.139662 -10.864139 -150.384232 34.904911 -44.592556 106.211075
[L_mid_hand03]
11 104.641464 17.579376 -3.913581 -13.575852 13.082145 47.042416 106.179977
12 104.641464 17.579376 -3.913581 -12.781249 13.855401 50.452690 106.179977
[null_rope02_connect]
11 328.732849 0.000179 -0.000119 -123.103394 74.912079 50.008755 328.732849
12 328.732849 0.000179 -0.000119 -131.780167 72.082710 45.754375 328.732849
[Rope2_Seg01]
11 0.000086 0.000007 0.000000 -92.962677 80.426193 16.980158 0.000086
12 0.000087 -0.000004 0.000000 -86.444138 67.384750 17.635712 0.000087
[Rope2_Seg02]
11 139.999741 -0.000060 -0.000119 -1.452226 3.903135 1.778429 139.999756
12 139.999741 -0.000060 -0.000119 -3.381707 3.622143 5.337147 139.999756
[Rope2_Seg03]
11 140.000107 0.000030 0.000000 -1.741868 4.038857 1.929981 140.000107
12 140.000107 0.000030 0.000000 -3.419019 3.393662 5.263227 140.000107
[Rope2_Seg04]
11 139.999802 0.000000 -0.000060 -0.507627 5.100978 -1.540820 139.999802
12 139.999802 0.000000 -0.000060 -2.650010 3.729875 3.251891 139.999802
[Rope2_Seg05]
11 139.999985 -0.000060 0.000119 -2.982970 3.546070 3.052794 139.999985
12 139.999985 -0.000060 0.000119 -4.207646 1.160937 7.249270 139.999985
[Rope2_Seg06]
11 139.999893 -0.000030 -0.000119 -8.848254 0.173717 15.522368 139.999893
12 139.999893 -0.000030 -0.000119 -6.001318 -2.538323 14.423502 139.999893
[Rope2_Seg07]
11 139.999893 0.000060 -0.000060 -6.872332 -2.946378 17.928370 139.999893
12 139.999893 0.000060 -0.000060 -3.575930 -3.150921 13.041998 139.999893
[Rope2_Seg09]
11 121.338966 0.000089 -0.000060 33.793236 -1.359788 -0.847141 121.338966
12 121.338966 0.000089 -0.000060 33.793236 -1.359788 -0.847141 121.338966
[R_mid_hand01]
11 104.680779 11.144459 -10.335981 -36.116539 33.174709 39.598408 105.778534
12 104.680779 11.144459 -10.335981 -36.922554 32.243565 38.107742 105.778534
[R_mid_hand02]
11 104.070427 2.443552 8.231699 69.680672 -44.419228 15.065828 104.424065
12 104.070427 2.443552 8.231699 70.193451 -42.958271 14.324638 104.424065
[R_mid_hand03]
11 106.028137 -11.221827 -5.996406 -170.354065 12.593575 -49.350609 106.788818
12 106.028137 -11.221827 -5.996406 -170.013962 12.325404 -47.779564 106.788818
[spine02]
11 129.756927 0.001550 0.000119 -1.248347 -3.861109 10.087797 129.756927
12 129.756927 0.001550 0.000119 -1.227163 -3.870649 9.739484 129.756927
[spine03]
11 78.614098 0.081560 -4.899014 1.999221 3.782333 18.012274 78.766640
12 78.614098 0.081568 -4.899014 1.999905 3.779322 18.044802 78.766640
[pelvis]
11 169.435242 0.051022 0.000000 -0.070239 -0.177772 17.208139 169.435257
12 169.435242 0.051022 0.000000 -0.070363 -0.177723 17.288181 169.435257
[null_rope03_connect]
11 -1.257226 -2.466202 137.391083 -35.427662 -84.286186 37.359413 137.418976
12 -1.257226 -2.466202 137.391083 -35.358326 -83.564621 34.723171 137.418976
[null_rope04_connect]
11 -1.259640 -2.480268 -137.844437 -35.427662 -84.286186 37.359413 137.872513
12 -1.259640 -2.480268 -137.844437 -35.358326 -83.564621 34.723171 137.872513
[Rope3_Seg01]
11 -0.000029 -0.000028 0.000078 -143.553009 53.012638 -86.228790 0.000088
12 -0.000029 -0.000027 0.000086 -139.051804 55.724903 -79.601364 0.000095
[Rope3_Seg02]
11 139.999924 -0.000119 0.000060 -1.389258 -3.837435 2.072382 139.999924
12 139.999924 -0.000119 0.000060 -0.997832 -2.970062 2.476749 139.999924
[Rope3_Seg03]
11 139.999924 -0.000119 0.000119 -1.129647 -3.311515 1.647416 139.999924
12 139.999924 -0.000119 0.000119 -0.877279 -2.609207 2.094596 139.999924
[Rope3_Seg04]
11 139.999924 0.000119 0.000000 -1.310961 -4.998673 0.583668 139.999924
12 139.999924 0.000119 0.000000 -1.036568 -3.826818 1.154704 139.999924
[Rope3_Seg05]
11 139.999924 -0.000238 0.000060 -0.503423 -2.125365 1.094316 139.999924
12 139.999924 -0.000238 0.000060 -0.497856 -2.050043 1.375838 139.999924
[Rope3_Seg06]
11 139.999893 -0.000119 -0.000060 0.556724 2.150626 2.683526 139.999893
12 139.999893 -0.000119 -0.000060 0.291498 1.157294 2.735031 139.999893
[Rope3_Seg07]
11 139.999771 0.000060 -0.000119 1.525530 5.293840 4.133199 139.999771
12 139.999771 0.000060 -0.000119 0.912552 3.734896 4.243511 139.999771
[Rope3_Seg08]
11 139.999985 -0.000060 0.000000 1.011568 2.876615 2.773151 139.999985
12 139.999985 -0.000060 0.000000 0.578023 2.088784 3.114079 139.999985
[Rope3_Seg09]
11 90.185997 -0.000179 -0.000060 89.793228 -1.359877 -0.847183 90.185997
12 90.185997 -0.000179 -0.000060 89.793228 -1.359877 -0.847183 90.185997
[R_rear_hand01]
11 103.366196 -6.073594 -10.757982 -165.009155 19.819433 -41.100952 104.101845
12 103.366196 -6.073594 -10.757982 -164.755127 19.627697 -40.352161 104.101845
[R_rear_hand02]
11 100.509819 12.039542 -7.992327 -30.502352 25.155794 38.836960 101.543350
12 100.509819 12.039542 -7.992327 -30.792652 24.782450 38.141541 101.543350
[R_rear_hand03]
11 101.539970 5.215704 5.435467 82.364594 -41.773369 8.967985 101.819031
12 101.539970 5.215704 5.435467 82.448349 -41.048256 8.840383 101.819031
[Rope4_Seg01]
11 0.000010 0.000028 -0.000113 50.464657 17.374769 -99.312843 0.000117
12 0.000010 0.000027 -0.000110 46.791210 19.779911 -111.571701 0.000113
[Rope4_Seg02]
11 139.999985 0.000060 0.000119 0.975438 17.109217 -29.055311 139.999985
12 139.999985 0.000060 0.000119 -3.652272 21.460917 -25.139948 139.999985
[Rope4_Seg03]
11 139.999924 0.000000 -0.000238 1.930745 4.485626 -14.226226 139.999924
12 139.999924 0.000000 -0.000238 1.214695 7.523371 -12.209699 139.999924
[Rope4_Seg04]
11 139.999985 0.000000 0.000119 0.878689 0.851132 -7.356473 139.999985
12 139.999985 0.000000 0.000119 0.920302 2.375989 -6.344249 139.999985
[Rope4_Seg05]
11 139.999802 -0.000060 -0.000119 0.266291 2.061492 -0.963073 139.999802
12 139.999802 -0.000060 -0.000119 0.376986 2.858403 -0.820076 139.999802
[Rope4_Seg06]
11 139.999924 0.000000 0.000060 0.110911 3.932817 2.316622 139.999924
12 139.999924 0.000000 0.000060 0.207118 4.693415 2.113950 139.999924
[Rope4_Seg07]
11 139.999802 0.000000 0.000000 -0.468043 9.307123 8.640615 139.999802
12 139.999802 0.000000 0.000000 -0.202477 9.892779 7.172022 139.999802
[Rope4_Seg08]
11 139.999924 0.000000 0.000119 -3.277271 10.541964 9.554378 139.999924
12 139.999924 0.000000 0.000119 -2.090367 9.678799 6.286510 139.999924
[Rope4_Seg09]
11 90.185791 0.000060 0.000060 -135.617828 2.228885 0.850567 90.185791
12 90.185791 0.000060 0.000060 -135.617828 2.228885 0.850567 90.185791
[L_rear_hand01]
11 101.696655 -8.392275 -7.654577 -28.015858 -27.942150 135.607513 102.329041
12 101.696655 -8.392275 -7.654577 -26.077669 -29.734318 131.595917 102.329041
[L_rear_hand02]
11 102.726799 -1.568258 5.773216 81.577332 47.415279 169.913010 102.900848
12 102.726799 -1.568258 5.773216 80.880585 51.310986 168.994995 102.900848
[L_rear_hand03]
11 104.552910 9.721220 -10.420293 -167.078079 -21.194334 -132.993317 105.519653
12 104.552910 9.721220 -10.420293 -168.606277 -22.023737 -128.845825 105.519653
